<svg width="28" height="28" viewBox="0 0 28 28" fill="none" xmlns="http://www.w3.org/2000/svg">
<path d="M25.3752 24.1376L18.7671 17.5295C20.355 15.6232 21.1468 13.1781 20.9778 10.7029C20.8089 8.22765 19.6921 5.91284 17.8599 4.24001C16.0277 2.56718 13.6211 1.66512 11.1407 1.72148C8.66035 1.77785 6.29721 2.7883 4.54287 4.54263C2.78854 6.29696 1.77809 8.66011 1.72173 11.1405C1.66537 13.6208 2.56743 16.0274 4.24026 17.8596C5.91309 19.6919 8.2279 20.8086 10.7031 20.9776C13.1784 21.1466 15.6235 20.3548 17.5298 18.7669L24.1379 25.375L25.3752 24.1376ZM3.50021 11.375C3.50021 9.81744 3.96207 8.29488 4.82738 6.99985C5.6927 5.70481 6.92261 4.69545 8.36158 4.09941C9.80054 3.50337 11.3839 3.34742 12.9115 3.65128C14.4391 3.95514 15.8423 4.70516 16.9437 5.8065C18.045 6.90784 18.795 8.31103 19.0989 9.83863C19.4028 11.3662 19.2468 12.9496 18.6508 14.3886C18.0547 15.8276 17.0454 17.0575 15.7503 17.9228C14.4553 18.7881 12.9327 19.25 11.3752 19.25C9.28734 19.2476 7.28565 18.4172 5.8093 16.9409C4.33295 15.4645 3.50252 13.4628 3.50021 11.375Z" fill="#00C4BD" stroke="#00C4BD"/>
</svg>
